<mxfile host="app.diagrams.net" agent="Mozilla/5.0 (Windows NT 10.0; Win64; x64; rv:129.0) Gecko/20100101 Firefox/129.0" version="24.7.6">
  <diagram name="Page-1" id="c4acf3e9-155e-7222-9cf6-157b1a14988f">
    <mxGraphModel dx="1510" dy="2138" grid="1" gridSize="10" guides="1" tooltips="1" connect="1" arrows="1" fold="1" page="1" pageScale="1" pageWidth="850" pageHeight="1100" background="none" math="0" shadow="0">
      <root>
        <mxCell id="0" />
        <mxCell id="1" parent="0" />
        <mxCell id="H7SSfiSkbb4HwNiGD-Mi-15" value="iounit_configuration" style="swimlane;html=1;fontStyle=0;childLayout=stackLayout;horizontal=1;startSize=26;fillColor=default;horizontalStack=0;resizeParent=1;resizeLast=0;collapsible=1;marginBottom=0;swimlaneFillColor=#ffffff;rounded=0;shadow=0;comic=0;labelBackgroundColor=none;strokeWidth=1;fontFamily=Verdana;fontSize=10;align=center;" parent="1" vertex="1">
          <mxGeometry x="60" y="-86" width="160" height="300" as="geometry" />
        </mxCell>
        <mxCell id="H7SSfiSkbb4HwNiGD-Mi-16" value="id: SERIAL, PK" style="text;html=1;strokeColor=none;fillColor=none;align=left;verticalAlign=top;spacingLeft=4;spacingRight=4;whiteSpace=wrap;overflow=hidden;rotatable=0;points=[[0,0.5],[1,0.5]];portConstraint=eastwest;" parent="H7SSfiSkbb4HwNiGD-Mi-15" vertex="1">
          <mxGeometry y="26" width="160" height="26" as="geometry" />
        </mxCell>
        <mxCell id="H7SSfiSkbb4HwNiGD-Mi-17" value="long_name: VARCHAR(40)" style="text;html=1;strokeColor=none;fillColor=none;align=left;verticalAlign=top;spacingLeft=4;spacingRight=4;whiteSpace=wrap;overflow=hidden;rotatable=0;points=[[0,0.5],[1,0.5]];portConstraint=eastwest;" parent="H7SSfiSkbb4HwNiGD-Mi-15" vertex="1">
          <mxGeometry y="52" width="160" height="26" as="geometry" />
        </mxCell>
        <mxCell id="H7SSfiSkbb4HwNiGD-Mi-18" value="short_name: VARCHAR(25)" style="text;html=1;strokeColor=none;fillColor=none;align=left;verticalAlign=top;spacingLeft=4;spacingRight=4;whiteSpace=wrap;overflow=hidden;rotatable=0;points=[[0,0.5],[1,0.5]];portConstraint=eastwest;" parent="H7SSfiSkbb4HwNiGD-Mi-15" vertex="1">
          <mxGeometry y="78" width="160" height="26" as="geometry" />
        </mxCell>
        <mxCell id="H7SSfiSkbb4HwNiGD-Mi-19" value="id_st: INT, FK" style="text;html=1;strokeColor=none;fillColor=none;align=left;verticalAlign=top;spacingLeft=4;spacingRight=4;whiteSpace=wrap;overflow=hidden;rotatable=0;points=[[0,0.5],[1,0.5]];portConstraint=eastwest;" parent="H7SSfiSkbb4HwNiGD-Mi-15" vertex="1">
          <mxGeometry y="104" width="160" height="26" as="geometry" />
        </mxCell>
        <mxCell id="H7SSfiSkbb4HwNiGD-Mi-20" value="id_sdm: INT, FK?" style="text;html=1;strokeColor=none;fillColor=none;align=left;verticalAlign=top;spacingLeft=4;spacingRight=4;whiteSpace=wrap;overflow=hidden;rotatable=0;points=[[0,0.5],[1,0.5]];portConstraint=eastwest;" parent="H7SSfiSkbb4HwNiGD-Mi-15" vertex="1">
          <mxGeometry y="130" width="160" height="26" as="geometry" />
        </mxCell>
        <mxCell id="H7SSfiSkbb4HwNiGD-Mi-21" value="+ field: type" style="text;html=1;strokeColor=none;fillColor=none;align=left;verticalAlign=top;spacingLeft=4;spacingRight=4;whiteSpace=wrap;overflow=hidden;rotatable=0;points=[[0,0.5],[1,0.5]];portConstraint=eastwest;" parent="H7SSfiSkbb4HwNiGD-Mi-15" vertex="1">
          <mxGeometry y="156" width="160" height="26" as="geometry" />
        </mxCell>
        <mxCell id="H7SSfiSkbb4HwNiGD-Mi-22" value="+ field: type" style="text;html=1;strokeColor=none;fillColor=none;align=left;verticalAlign=top;spacingLeft=4;spacingRight=4;whiteSpace=wrap;overflow=hidden;rotatable=0;points=[[0,0.5],[1,0.5]];portConstraint=eastwest;" parent="H7SSfiSkbb4HwNiGD-Mi-15" vertex="1">
          <mxGeometry y="182" width="160" height="26" as="geometry" />
        </mxCell>
        <mxCell id="H7SSfiSkbb4HwNiGD-Mi-23" value="+ field: type" style="text;html=1;strokeColor=none;fillColor=none;align=left;verticalAlign=top;spacingLeft=4;spacingRight=4;whiteSpace=wrap;overflow=hidden;rotatable=0;points=[[0,0.5],[1,0.5]];portConstraint=eastwest;" parent="H7SSfiSkbb4HwNiGD-Mi-15" vertex="1">
          <mxGeometry y="208" width="160" height="26" as="geometry" />
        </mxCell>
        <mxCell id="H7SSfiSkbb4HwNiGD-Mi-24" value="measuring_units" style="swimlane;html=1;fontStyle=0;childLayout=stackLayout;horizontal=1;startSize=26;fillColor=default;horizontalStack=0;resizeParent=1;resizeLast=0;collapsible=1;marginBottom=0;swimlaneFillColor=#ffffff;rounded=0;shadow=0;comic=0;labelBackgroundColor=none;strokeWidth=1;fontFamily=Verdana;fontSize=10;align=center;" parent="1" vertex="1">
          <mxGeometry x="1520" y="-42" width="160" height="300" as="geometry" />
        </mxCell>
        <mxCell id="H7SSfiSkbb4HwNiGD-Mi-25" value="id: SMALLINT, PK" style="text;html=1;strokeColor=none;fillColor=none;align=left;verticalAlign=top;spacingLeft=4;spacingRight=4;whiteSpace=wrap;overflow=hidden;rotatable=0;points=[[0,0.5],[1,0.5]];portConstraint=eastwest;" parent="H7SSfiSkbb4HwNiGD-Mi-24" vertex="1">
          <mxGeometry y="26" width="160" height="26" as="geometry" />
        </mxCell>
        <mxCell id="H7SSfiSkbb4HwNiGD-Mi-26" value="long_name: VARCHAR(40)" style="text;html=1;strokeColor=none;fillColor=none;align=left;verticalAlign=top;spacingLeft=4;spacingRight=4;whiteSpace=wrap;overflow=hidden;rotatable=0;points=[[0,0.5],[1,0.5]];portConstraint=eastwest;" parent="H7SSfiSkbb4HwNiGD-Mi-24" vertex="1">
          <mxGeometry y="52" width="160" height="26" as="geometry" />
        </mxCell>
        <mxCell id="H7SSfiSkbb4HwNiGD-Mi-27" value="short_name: VARCHAR(25)" style="text;html=1;strokeColor=none;fillColor=none;align=left;verticalAlign=top;spacingLeft=4;spacingRight=4;whiteSpace=wrap;overflow=hidden;rotatable=0;points=[[0,0.5],[1,0.5]];portConstraint=eastwest;" parent="H7SSfiSkbb4HwNiGD-Mi-24" vertex="1">
          <mxGeometry y="78" width="160" height="152" as="geometry" />
        </mxCell>
        <mxCell id="H7SSfiSkbb4HwNiGD-Mi-33" value="iounit_data_chronology" style="swimlane;html=1;fontStyle=0;childLayout=stackLayout;horizontal=1;startSize=26;fillColor=default;horizontalStack=0;resizeParent=1;resizeLast=0;collapsible=1;marginBottom=0;swimlaneFillColor=#ffffff;rounded=0;shadow=0;comic=0;labelBackgroundColor=none;strokeWidth=1;fontFamily=Verdana;fontSize=10;align=center;" parent="1" vertex="1">
          <mxGeometry x="930" y="-60" width="310" height="300" as="geometry" />
        </mxCell>
        <mxCell id="H7SSfiSkbb4HwNiGD-Mi-34" value="id: INTEGER, PK" style="text;html=1;strokeColor=none;fillColor=none;align=left;verticalAlign=top;spacingLeft=4;spacingRight=4;whiteSpace=wrap;overflow=hidden;rotatable=0;points=[[0,0.5],[1,0.5]];portConstraint=eastwest;" parent="H7SSfiSkbb4HwNiGD-Mi-33" vertex="1">
          <mxGeometry y="26" width="310" height="26" as="geometry" />
        </mxCell>
        <mxCell id="H7SSfiSkbb4HwNiGD-Mi-37" value="datetime: TIMESTAMP" style="text;html=1;strokeColor=none;fillColor=none;align=left;verticalAlign=top;spacingLeft=4;spacingRight=4;whiteSpace=wrap;overflow=hidden;rotatable=0;points=[[0,0.5],[1,0.5]];portConstraint=eastwest;" parent="H7SSfiSkbb4HwNiGD-Mi-33" vertex="1">
          <mxGeometry y="52" width="310" height="26" as="geometry" />
        </mxCell>
        <mxCell id="H7SSfiSkbb4HwNiGD-Mi-35" value="value_numerical: NUMERIC" style="text;html=1;strokeColor=none;fillColor=none;align=left;verticalAlign=top;spacingLeft=4;spacingRight=4;whiteSpace=wrap;overflow=hidden;rotatable=0;points=[[0,0.5],[1,0.5]];portConstraint=eastwest;" parent="H7SSfiSkbb4HwNiGD-Mi-33" vertex="1">
          <mxGeometry y="78" width="310" height="26" as="geometry" />
        </mxCell>
        <mxCell id="H7SSfiSkbb4HwNiGD-Mi-36" value="value_alphanumerical: VARCHAR(25)" style="text;html=1;strokeColor=none;fillColor=none;align=left;verticalAlign=top;spacingLeft=4;spacingRight=4;whiteSpace=wrap;overflow=hidden;rotatable=0;points=[[0,0.5],[1,0.5]];portConstraint=eastwest;" parent="H7SSfiSkbb4HwNiGD-Mi-33" vertex="1">
          <mxGeometry y="104" width="310" height="26" as="geometry" />
        </mxCell>
        <mxCell id="H7SSfiSkbb4HwNiGD-Mi-38" value="id_mu: SMALLINT, FK" style="text;html=1;strokeColor=none;fillColor=none;align=left;verticalAlign=top;spacingLeft=4;spacingRight=4;whiteSpace=wrap;overflow=hidden;rotatable=0;points=[[0,0.5],[1,0.5]];portConstraint=eastwest;" parent="H7SSfiSkbb4HwNiGD-Mi-33" vertex="1">
          <mxGeometry y="130" width="310" height="26" as="geometry" />
        </mxCell>
        <mxCell id="H7SSfiSkbb4HwNiGD-Mi-39" value="id_sdm: SMALLINT, FK" style="text;html=1;strokeColor=none;fillColor=none;align=left;verticalAlign=top;spacingLeft=4;spacingRight=4;whiteSpace=wrap;overflow=hidden;rotatable=0;points=[[0,0.5],[1,0.5]];portConstraint=eastwest;" parent="H7SSfiSkbb4HwNiGD-Mi-33" vertex="1">
          <mxGeometry y="156" width="310" height="26" as="geometry" />
        </mxCell>
        <mxCell id="H7SSfiSkbb4HwNiGD-Mi-40" value="+ field: type" style="text;html=1;strokeColor=none;fillColor=none;align=left;verticalAlign=top;spacingLeft=4;spacingRight=4;whiteSpace=wrap;overflow=hidden;rotatable=0;points=[[0,0.5],[1,0.5]];portConstraint=eastwest;" parent="H7SSfiSkbb4HwNiGD-Mi-33" vertex="1">
          <mxGeometry y="182" width="310" height="26" as="geometry" />
        </mxCell>
        <mxCell id="H7SSfiSkbb4HwNiGD-Mi-41" value="+ field: type" style="text;html=1;strokeColor=none;fillColor=none;align=left;verticalAlign=top;spacingLeft=4;spacingRight=4;whiteSpace=wrap;overflow=hidden;rotatable=0;points=[[0,0.5],[1,0.5]];portConstraint=eastwest;" parent="H7SSfiSkbb4HwNiGD-Mi-33" vertex="1">
          <mxGeometry y="208" width="310" height="26" as="geometry" />
        </mxCell>
        <mxCell id="H7SSfiSkbb4HwNiGD-Mi-51" value="iounit_type" style="swimlane;html=1;fontStyle=0;childLayout=stackLayout;horizontal=1;startSize=26;fillColor=default;horizontalStack=0;resizeParent=1;resizeLast=0;collapsible=1;marginBottom=0;swimlaneFillColor=#ffffff;rounded=0;shadow=0;comic=0;labelBackgroundColor=none;strokeWidth=1;fontFamily=Verdana;fontSize=10;align=center;" parent="1" vertex="1">
          <mxGeometry x="480" y="-676" width="250" height="534" as="geometry" />
        </mxCell>
        <mxCell id="H7SSfiSkbb4HwNiGD-Mi-52" value="id: INT, PK" style="text;html=1;strokeColor=none;fillColor=none;align=left;verticalAlign=top;spacingLeft=4;spacingRight=4;whiteSpace=wrap;overflow=hidden;rotatable=0;points=[[0,0.5],[1,0.5]];portConstraint=eastwest;" parent="H7SSfiSkbb4HwNiGD-Mi-51" vertex="1">
          <mxGeometry y="26" width="250" height="26" as="geometry" />
        </mxCell>
        <mxCell id="H7SSfiSkbb4HwNiGD-Mi-53" value="long_name: VARCHAR(40)" style="text;html=1;strokeColor=none;fillColor=none;align=left;verticalAlign=top;spacingLeft=4;spacingRight=4;whiteSpace=wrap;overflow=hidden;rotatable=0;points=[[0,0.5],[1,0.5]];portConstraint=eastwest;" parent="H7SSfiSkbb4HwNiGD-Mi-51" vertex="1">
          <mxGeometry y="52" width="250" height="26" as="geometry" />
        </mxCell>
        <mxCell id="H7SSfiSkbb4HwNiGD-Mi-54" value="short_name: VARCHAR(25)" style="text;html=1;strokeColor=none;fillColor=none;align=left;verticalAlign=top;spacingLeft=4;spacingRight=4;whiteSpace=wrap;overflow=hidden;rotatable=0;points=[[0,0.5],[1,0.5]];portConstraint=eastwest;" parent="H7SSfiSkbb4HwNiGD-Mi-51" vertex="1">
          <mxGeometry y="78" width="250" height="26" as="geometry" />
        </mxCell>
        <mxCell id="H7SSfiSkbb4HwNiGD-Mi-55" value="py_drv_path: VARCHAR(100)" style="text;html=1;strokeColor=none;fillColor=none;align=left;verticalAlign=top;spacingLeft=4;spacingRight=4;whiteSpace=wrap;overflow=hidden;rotatable=0;points=[[0,0.5],[1,0.5]];portConstraint=eastwest;" parent="H7SSfiSkbb4HwNiGD-Mi-51" vertex="1">
          <mxGeometry y="104" width="250" height="26" as="geometry" />
        </mxCell>
        <mxCell id="H7SSfiSkbb4HwNiGD-Mi-56" value="+ field: type" style="text;html=1;strokeColor=none;fillColor=none;align=left;verticalAlign=top;spacingLeft=4;spacingRight=4;whiteSpace=wrap;overflow=hidden;rotatable=0;points=[[0,0.5],[1,0.5]];portConstraint=eastwest;" parent="H7SSfiSkbb4HwNiGD-Mi-51" vertex="1">
          <mxGeometry y="130" width="250" height="26" as="geometry" />
        </mxCell>
        <mxCell id="H7SSfiSkbb4HwNiGD-Mi-57" value="+ field: type" style="text;html=1;strokeColor=none;fillColor=none;align=left;verticalAlign=top;spacingLeft=4;spacingRight=4;whiteSpace=wrap;overflow=hidden;rotatable=0;points=[[0,0.5],[1,0.5]];portConstraint=eastwest;" parent="H7SSfiSkbb4HwNiGD-Mi-51" vertex="1">
          <mxGeometry y="156" width="250" height="26" as="geometry" />
        </mxCell>
        <mxCell id="H7SSfiSkbb4HwNiGD-Mi-58" value="+ field: type" style="text;html=1;strokeColor=none;fillColor=none;align=left;verticalAlign=top;spacingLeft=4;spacingRight=4;whiteSpace=wrap;overflow=hidden;rotatable=0;points=[[0,0.5],[1,0.5]];portConstraint=eastwest;" parent="H7SSfiSkbb4HwNiGD-Mi-51" vertex="1">
          <mxGeometry y="182" width="250" height="26" as="geometry" />
        </mxCell>
        <mxCell id="H7SSfiSkbb4HwNiGD-Mi-59" value="+ field: type" style="text;html=1;strokeColor=none;fillColor=none;align=left;verticalAlign=top;spacingLeft=4;spacingRight=4;whiteSpace=wrap;overflow=hidden;rotatable=0;points=[[0,0.5],[1,0.5]];portConstraint=eastwest;" parent="H7SSfiSkbb4HwNiGD-Mi-51" vertex="1">
          <mxGeometry y="208" width="250" height="26" as="geometry" />
        </mxCell>
        <mxCell id="H7SSfiSkbb4HwNiGD-Mi-60" value="" style="endArrow=none;html=1;rounded=0;entryX=0;entryY=0.5;entryDx=0;entryDy=0;exitX=1;exitY=0.5;exitDx=0;exitDy=0;" parent="1" edge="1">
          <mxGeometry width="50" height="50" relative="1" as="geometry">
            <mxPoint x="1240" y="81" as="sourcePoint" />
            <mxPoint x="1520" y="1" as="targetPoint" />
            <Array as="points">
              <mxPoint x="1390" y="81" />
              <mxPoint x="1390" y="2" />
            </Array>
          </mxGeometry>
        </mxCell>
        <mxCell id="H7SSfiSkbb4HwNiGD-Mi-61" value="Beschreibt den einzelnen Sensor als Hardware. Bsp. der DHT22&amp;nbsp; a oder b Sensor" style="shape=note;whiteSpace=wrap;html=1;backgroundOutline=1;darkOpacity=0.05;" parent="1" vertex="1">
          <mxGeometry x="190" y="170" width="150" height="100" as="geometry" />
        </mxCell>
        <mxCell id="H7SSfiSkbb4HwNiGD-Mi-62" value="Für jeden Sensortyp z.b. DHT22 Sensor muss es eine Python Treiber Datei bzw. Treiber Docker geben.&lt;div&gt;Hier gehört in jedem fall der Pfad zum Treiber der Python Datei hin&lt;/div&gt;" style="shape=note;whiteSpace=wrap;html=1;backgroundOutline=1;darkOpacity=0.05;" parent="1" vertex="1">
          <mxGeometry x="970" y="-1020" width="410" height="200" as="geometry" />
        </mxCell>
        <mxCell id="H7SSfiSkbb4HwNiGD-Mi-63" value="n" style="text;html=1;align=center;verticalAlign=middle;whiteSpace=wrap;rounded=0;" parent="1" vertex="1">
          <mxGeometry x="1240" y="51" width="60" height="30" as="geometry" />
        </mxCell>
        <mxCell id="H7SSfiSkbb4HwNiGD-Mi-64" value="1" style="text;html=1;align=center;verticalAlign=middle;whiteSpace=wrap;rounded=0;" parent="1" vertex="1">
          <mxGeometry x="1490" y="-29" width="30" height="30" as="geometry" />
        </mxCell>
        <mxCell id="2YGCaxfkQvvXlZCQIG5N-1" value="iounit_data_masterdata" style="swimlane;html=1;fontStyle=0;childLayout=stackLayout;horizontal=1;startSize=26;fillColor=default;horizontalStack=0;resizeParent=1;resizeLast=0;collapsible=1;marginBottom=0;swimlaneFillColor=#ffffff;rounded=0;shadow=0;comic=0;labelBackgroundColor=none;strokeWidth=1;fontFamily=Verdana;fontSize=10;align=center;" parent="1" vertex="1">
          <mxGeometry x="500" y="-60" width="160" height="300" as="geometry" />
        </mxCell>
        <mxCell id="2YGCaxfkQvvXlZCQIG5N-2" value="id: SERIAL, PK" style="text;html=1;strokeColor=none;fillColor=none;align=left;verticalAlign=top;spacingLeft=4;spacingRight=4;whiteSpace=wrap;overflow=hidden;rotatable=0;points=[[0,0.5],[1,0.5]];portConstraint=eastwest;" parent="2YGCaxfkQvvXlZCQIG5N-1" vertex="1">
          <mxGeometry y="26" width="160" height="26" as="geometry" />
        </mxCell>
        <mxCell id="2YGCaxfkQvvXlZCQIG5N-3" value="long_name: VARCHAR(40)" style="text;html=1;strokeColor=none;fillColor=none;align=left;verticalAlign=top;spacingLeft=4;spacingRight=4;whiteSpace=wrap;overflow=hidden;rotatable=0;points=[[0,0.5],[1,0.5]];portConstraint=eastwest;" parent="2YGCaxfkQvvXlZCQIG5N-1" vertex="1">
          <mxGeometry y="52" width="160" height="26" as="geometry" />
        </mxCell>
        <mxCell id="2YGCaxfkQvvXlZCQIG5N-4" value="short_name: VARCHAR(25)" style="text;html=1;strokeColor=none;fillColor=none;align=left;verticalAlign=top;spacingLeft=4;spacingRight=4;whiteSpace=wrap;overflow=hidden;rotatable=0;points=[[0,0.5],[1,0.5]];portConstraint=eastwest;" parent="2YGCaxfkQvvXlZCQIG5N-1" vertex="1">
          <mxGeometry y="78" width="160" height="26" as="geometry" />
        </mxCell>
        <mxCell id="2YGCaxfkQvvXlZCQIG5N-5" value="id_sc: INT, FK" style="text;html=1;strokeColor=none;fillColor=none;align=left;verticalAlign=top;spacingLeft=4;spacingRight=4;whiteSpace=wrap;overflow=hidden;rotatable=0;points=[[0,0.5],[1,0.5]];portConstraint=eastwest;" parent="2YGCaxfkQvvXlZCQIG5N-1" vertex="1">
          <mxGeometry y="104" width="160" height="26" as="geometry" />
        </mxCell>
        <mxCell id="2YGCaxfkQvvXlZCQIG5N-6" value="id_mu: INT, FK" style="text;html=1;strokeColor=none;fillColor=none;align=left;verticalAlign=top;spacingLeft=4;spacingRight=4;whiteSpace=wrap;overflow=hidden;rotatable=0;points=[[0,0.5],[1,0.5]];portConstraint=eastwest;" parent="2YGCaxfkQvvXlZCQIG5N-1" vertex="1">
          <mxGeometry y="130" width="160" height="26" as="geometry" />
        </mxCell>
        <mxCell id="2YGCaxfkQvvXlZCQIG5N-8" value="+ field: type" style="text;html=1;strokeColor=none;fillColor=none;align=left;verticalAlign=top;spacingLeft=4;spacingRight=4;whiteSpace=wrap;overflow=hidden;rotatable=0;points=[[0,0.5],[1,0.5]];portConstraint=eastwest;" parent="2YGCaxfkQvvXlZCQIG5N-1" vertex="1">
          <mxGeometry y="156" width="160" height="26" as="geometry" />
        </mxCell>
        <mxCell id="2YGCaxfkQvvXlZCQIG5N-9" value="+ field: type" style="text;html=1;strokeColor=none;fillColor=none;align=left;verticalAlign=top;spacingLeft=4;spacingRight=4;whiteSpace=wrap;overflow=hidden;rotatable=0;points=[[0,0.5],[1,0.5]];portConstraint=eastwest;" parent="2YGCaxfkQvvXlZCQIG5N-1" vertex="1">
          <mxGeometry y="182" width="160" height="26" as="geometry" />
        </mxCell>
        <mxCell id="2YGCaxfkQvvXlZCQIG5N-10" value="Beschreibt den Sensortyp als ganzes. Es gibt nur einen DHT22 Sensor." style="shape=note;whiteSpace=wrap;html=1;backgroundOutline=1;darkOpacity=0.05;" parent="1" vertex="1">
          <mxGeometry x="700" y="-244" width="270" height="100" as="geometry" />
        </mxCell>
        <mxCell id="2YGCaxfkQvvXlZCQIG5N-11" value="Beschreibt die einzelnen Sensordaten, die von einem Sensor erfasst werden können. Bsp. der DHT kann die Luftfreuchtigkeit und Temperatur messen" style="shape=note;whiteSpace=wrap;html=1;backgroundOutline=1;darkOpacity=0.05;" parent="1" vertex="1">
          <mxGeometry x="580" y="170" width="270" height="100" as="geometry" />
        </mxCell>
        <mxCell id="2YGCaxfkQvvXlZCQIG5N-12" value="" style="endArrow=none;html=1;rounded=0;entryX=0;entryY=0.5;entryDx=0;entryDy=0;exitX=1;exitY=0.5;exitDx=0;exitDy=0;" parent="1" source="2YGCaxfkQvvXlZCQIG5N-2" target="H7SSfiSkbb4HwNiGD-Mi-39" edge="1">
          <mxGeometry width="50" height="50" relative="1" as="geometry">
            <mxPoint x="660" y="81" as="sourcePoint" />
            <mxPoint x="710" y="31" as="targetPoint" />
          </mxGeometry>
        </mxCell>
        <mxCell id="2YGCaxfkQvvXlZCQIG5N-13" value="" style="endArrow=none;html=1;rounded=0;" parent="1" edge="1">
          <mxGeometry width="50" height="50" relative="1" as="geometry">
            <mxPoint x="450" y="84" as="sourcePoint" />
            <mxPoint x="500" y="84" as="targetPoint" />
          </mxGeometry>
        </mxCell>
        <mxCell id="2YGCaxfkQvvXlZCQIG5N-14" value="" style="endArrow=none;html=1;rounded=0;" parent="1" edge="1">
          <mxGeometry width="50" height="50" relative="1" as="geometry">
            <mxPoint x="450" y="330" as="sourcePoint" />
            <mxPoint x="450" y="90" as="targetPoint" />
          </mxGeometry>
        </mxCell>
        <mxCell id="2YGCaxfkQvvXlZCQIG5N-15" value="" style="endArrow=none;html=1;rounded=0;" parent="1" edge="1">
          <mxGeometry width="50" height="50" relative="1" as="geometry">
            <mxPoint x="450" y="330" as="sourcePoint" />
            <mxPoint x="1510" y="330" as="targetPoint" />
          </mxGeometry>
        </mxCell>
        <mxCell id="2YGCaxfkQvvXlZCQIG5N-16" value="" style="endArrow=none;html=1;rounded=0;" parent="1" edge="1">
          <mxGeometry width="50" height="50" relative="1" as="geometry">
            <mxPoint x="1510" y="330" as="sourcePoint" />
            <mxPoint x="1510" as="targetPoint" />
          </mxGeometry>
        </mxCell>
        <mxCell id="2YGCaxfkQvvXlZCQIG5N-17" value="n" style="text;html=1;align=center;verticalAlign=middle;whiteSpace=wrap;rounded=0;" parent="1" vertex="1">
          <mxGeometry x="450" y="81" width="60" height="30" as="geometry" />
        </mxCell>
        <mxCell id="2YGCaxfkQvvXlZCQIG5N-18" value="" style="endArrow=none;html=1;rounded=0;exitX=1.007;exitY=0.332;exitDx=0;exitDy=0;exitPerimeter=0;" parent="1" source="H7SSfiSkbb4HwNiGD-Mi-16" edge="1">
          <mxGeometry width="50" height="50" relative="1" as="geometry">
            <mxPoint x="220" y="-42" as="sourcePoint" />
            <mxPoint x="430" y="-51" as="targetPoint" />
          </mxGeometry>
        </mxCell>
        <mxCell id="2YGCaxfkQvvXlZCQIG5N-19" value="" style="endArrow=none;html=1;rounded=0;" parent="1" edge="1">
          <mxGeometry width="50" height="50" relative="1" as="geometry">
            <mxPoint x="430" y="50" as="sourcePoint" />
            <mxPoint x="430" y="-49" as="targetPoint" />
          </mxGeometry>
        </mxCell>
        <mxCell id="2YGCaxfkQvvXlZCQIG5N-20" value="" style="endArrow=none;html=1;rounded=0;entryX=0;entryY=0.5;entryDx=0;entryDy=0;" parent="1" target="2YGCaxfkQvvXlZCQIG5N-5" edge="1">
          <mxGeometry width="50" height="50" relative="1" as="geometry">
            <mxPoint x="430" y="51" as="sourcePoint" />
            <mxPoint x="480" y="1" as="targetPoint" />
          </mxGeometry>
        </mxCell>
        <mxCell id="2YGCaxfkQvvXlZCQIG5N-21" value="" style="endArrow=none;html=1;rounded=0;" parent="1" edge="1">
          <mxGeometry width="50" height="50" relative="1" as="geometry">
            <mxPoint x="20" y="30" as="sourcePoint" />
            <mxPoint x="20" y="-640" as="targetPoint" />
          </mxGeometry>
        </mxCell>
        <mxCell id="2YGCaxfkQvvXlZCQIG5N-22" value="" style="endArrow=none;html=1;rounded=0;entryX=0;entryY=0.5;entryDx=0;entryDy=0;" parent="1" target="H7SSfiSkbb4HwNiGD-Mi-52" edge="1">
          <mxGeometry width="50" height="50" relative="1" as="geometry">
            <mxPoint x="20" y="-637" as="sourcePoint" />
            <mxPoint x="480" y="-480" as="targetPoint" />
          </mxGeometry>
        </mxCell>
        <mxCell id="2YGCaxfkQvvXlZCQIG5N-23" value="" style="endArrow=none;html=1;rounded=0;" parent="1" target="H7SSfiSkbb4HwNiGD-Mi-19" edge="1">
          <mxGeometry width="50" height="50" relative="1" as="geometry">
            <mxPoint x="20" y="31" as="sourcePoint" />
            <mxPoint x="120" y="-29" as="targetPoint" />
          </mxGeometry>
        </mxCell>
        <mxCell id="2YGCaxfkQvvXlZCQIG5N-24" value="1" style="text;html=1;align=center;verticalAlign=middle;whiteSpace=wrap;rounded=0;" parent="1" vertex="1">
          <mxGeometry x="230" y="-86" width="30" height="30" as="geometry" />
        </mxCell>
        <mxCell id="2YGCaxfkQvvXlZCQIG5N-25" value="n" style="text;html=1;align=center;verticalAlign=middle;whiteSpace=wrap;rounded=0;" parent="1" vertex="1">
          <mxGeometry x="440" y="21" width="60" height="30" as="geometry" />
        </mxCell>
        <mxCell id="2YGCaxfkQvvXlZCQIG5N-26" value="1" style="text;html=1;align=center;verticalAlign=middle;whiteSpace=wrap;rounded=0;" parent="1" vertex="1">
          <mxGeometry x="450" y="-676" width="30" height="30" as="geometry" />
        </mxCell>
        <mxCell id="2YGCaxfkQvvXlZCQIG5N-27" value="n" style="text;html=1;align=center;verticalAlign=middle;whiteSpace=wrap;rounded=0;" parent="1" vertex="1">
          <mxGeometry x="10" y="1" width="60" height="30" as="geometry" />
        </mxCell>
        <mxCell id="H7SSfiSkbb4HwNiGD-Mi-42" value="iounit_data_currently" style="swimlane;html=1;fontStyle=0;childLayout=stackLayout;horizontal=1;startSize=26;fillColor=default;horizontalStack=0;resizeParent=1;resizeLast=0;collapsible=1;marginBottom=0;swimlaneFillColor=#ffffff;rounded=0;shadow=0;comic=0;labelBackgroundColor=none;strokeWidth=1;fontFamily=Verdana;fontSize=10;align=center;" parent="1" vertex="1">
          <mxGeometry x="510" y="420" width="250" height="300" as="geometry" />
        </mxCell>
        <mxCell id="H7SSfiSkbb4HwNiGD-Mi-43" value="id_sdm: ID, smallint, PK" style="text;html=1;strokeColor=none;fillColor=none;align=left;verticalAlign=top;spacingLeft=4;spacingRight=4;whiteSpace=wrap;overflow=hidden;rotatable=0;points=[[0,0.5],[1,0.5]];portConstraint=eastwest;" parent="H7SSfiSkbb4HwNiGD-Mi-42" vertex="1">
          <mxGeometry y="26" width="250" height="26" as="geometry" />
        </mxCell>
        <mxCell id="H7SSfiSkbb4HwNiGD-Mi-44" value="value_numerical: NUMERIC" style="text;html=1;strokeColor=none;fillColor=none;align=left;verticalAlign=top;spacingLeft=4;spacingRight=4;whiteSpace=wrap;overflow=hidden;rotatable=0;points=[[0,0.5],[1,0.5]];portConstraint=eastwest;" parent="H7SSfiSkbb4HwNiGD-Mi-42" vertex="1">
          <mxGeometry y="52" width="250" height="26" as="geometry" />
        </mxCell>
        <mxCell id="H7SSfiSkbb4HwNiGD-Mi-45" value="value_alphanumerical: VARCHAR(25)" style="text;html=1;strokeColor=none;fillColor=none;align=left;verticalAlign=top;spacingLeft=4;spacingRight=4;whiteSpace=wrap;overflow=hidden;rotatable=0;points=[[0,0.5],[1,0.5]];portConstraint=eastwest;" parent="H7SSfiSkbb4HwNiGD-Mi-42" vertex="1">
          <mxGeometry y="78" width="250" height="26" as="geometry" />
        </mxCell>
        <mxCell id="H7SSfiSkbb4HwNiGD-Mi-46" value="write_direction: BOOLEAN(default false)" style="text;html=1;strokeColor=none;fillColor=none;align=left;verticalAlign=top;spacingLeft=4;spacingRight=4;whiteSpace=wrap;overflow=hidden;rotatable=0;points=[[0,0.5],[1,0.5]];portConstraint=eastwest;" parent="H7SSfiSkbb4HwNiGD-Mi-42" vertex="1">
          <mxGeometry y="104" width="250" height="26" as="geometry" />
        </mxCell>
        <mxCell id="H7SSfiSkbb4HwNiGD-Mi-47" value="direction_stamp_a: TIMESTAMP" style="text;html=1;strokeColor=none;fillColor=none;align=left;verticalAlign=top;spacingLeft=4;spacingRight=4;whiteSpace=wrap;overflow=hidden;rotatable=0;points=[[0,0.5],[1,0.5]];portConstraint=eastwest;" parent="H7SSfiSkbb4HwNiGD-Mi-42" vertex="1">
          <mxGeometry y="130" width="250" height="26" as="geometry" />
        </mxCell>
        <mxCell id="H7SSfiSkbb4HwNiGD-Mi-48" value="direction_stamp_b: TIMESTAMP" style="text;html=1;strokeColor=none;fillColor=none;align=left;verticalAlign=top;spacingLeft=4;spacingRight=4;whiteSpace=wrap;overflow=hidden;rotatable=0;points=[[0,0.5],[1,0.5]];portConstraint=eastwest;" parent="H7SSfiSkbb4HwNiGD-Mi-42" vertex="1">
          <mxGeometry y="156" width="250" height="26" as="geometry" />
        </mxCell>
        <mxCell id="H7SSfiSkbb4HwNiGD-Mi-49" value="last_processing: TIMESTAMP" style="text;html=1;strokeColor=none;fillColor=none;align=left;verticalAlign=top;spacingLeft=4;spacingRight=4;whiteSpace=wrap;overflow=hidden;rotatable=0;points=[[0,0.5],[1,0.5]];portConstraint=eastwest;" parent="H7SSfiSkbb4HwNiGD-Mi-42" vertex="1">
          <mxGeometry y="182" width="250" height="26" as="geometry" />
        </mxCell>
        <mxCell id="H7SSfiSkbb4HwNiGD-Mi-50" value="+ field: type" style="text;html=1;strokeColor=none;fillColor=none;align=left;verticalAlign=top;spacingLeft=4;spacingRight=4;whiteSpace=wrap;overflow=hidden;rotatable=0;points=[[0,0.5],[1,0.5]];portConstraint=eastwest;" parent="H7SSfiSkbb4HwNiGD-Mi-42" vertex="1">
          <mxGeometry y="208" width="250" height="26" as="geometry" />
        </mxCell>
        <mxCell id="do_znhEbvavf_1-zhiPA-2" value="" style="endArrow=none;html=1;rounded=0;" parent="1" edge="1">
          <mxGeometry width="50" height="50" relative="1" as="geometry">
            <mxPoint x="370" y="460" as="sourcePoint" />
            <mxPoint x="510" y="460" as="targetPoint" />
          </mxGeometry>
        </mxCell>
        <mxCell id="do_znhEbvavf_1-zhiPA-3" value="" style="endArrow=none;html=1;rounded=0;" parent="1" edge="1">
          <mxGeometry width="50" height="50" relative="1" as="geometry">
            <mxPoint x="370" y="460" as="sourcePoint" />
            <mxPoint x="380" y="-10" as="targetPoint" />
          </mxGeometry>
        </mxCell>
        <mxCell id="do_znhEbvavf_1-zhiPA-4" value="" style="endArrow=none;html=1;rounded=0;entryX=0;entryY=0.5;entryDx=0;entryDy=0;" parent="1" target="2YGCaxfkQvvXlZCQIG5N-2" edge="1">
          <mxGeometry width="50" height="50" relative="1" as="geometry">
            <mxPoint x="380" as="sourcePoint" />
            <mxPoint x="430" y="-50" as="targetPoint" />
          </mxGeometry>
        </mxCell>
        <mxCell id="do_znhEbvavf_1-zhiPA-5" value="1" style="text;html=1;align=center;verticalAlign=middle;whiteSpace=wrap;rounded=0;" parent="1" vertex="1">
          <mxGeometry x="465" y="-56" width="30" height="30" as="geometry" />
        </mxCell>
        <mxCell id="do_znhEbvavf_1-zhiPA-6" value="1" style="text;html=1;align=center;verticalAlign=middle;whiteSpace=wrap;rounded=0;" parent="1" vertex="1">
          <mxGeometry x="470" y="420" width="30" height="30" as="geometry" />
        </mxCell>
        <mxCell id="do_znhEbvavf_1-zhiPA-7" value="1" style="text;html=1;align=center;verticalAlign=middle;whiteSpace=wrap;rounded=0;" parent="1" vertex="1">
          <mxGeometry x="680" y="-42" width="30" height="30" as="geometry" />
        </mxCell>
        <mxCell id="do_znhEbvavf_1-zhiPA-8" value="n" style="text;html=1;align=center;verticalAlign=middle;whiteSpace=wrap;rounded=0;" parent="1" vertex="1">
          <mxGeometry x="880" y="60" width="60" height="30" as="geometry" />
        </mxCell>
        <mxCell id="do_znhEbvavf_1-zhiPA-9" value="Beschreibt die Transaktionen der einzelnen IOUNITS zum aktuellen Zeitpunkt. Der Standard fall beschreibt, wenn man nur lesend etwas vom IO Device haben möchte. Bei False ist stamp_a die api anforderung der speicherung in die db und b die gesetzte Sensor zeit." style="shape=note;whiteSpace=wrap;html=1;backgroundOutline=1;darkOpacity=0.05;" parent="1" vertex="1">
          <mxGeometry x="710" y="680" width="290" height="160" as="geometry" />
        </mxCell>
      </root>
    </mxGraphModel>
  </diagram>
</mxfile>
